<svg xmlns="http://www.w3.org/2000/svg" viewBox="0 0 258 165" role="img" aria-labelledby="title desc" shape-rendering="crispEdges">
<title id="title">Super Mango</title>
<desc id="desc">Pixel-art Super Mango logo with orange SUPER lettering and red MANGO lettering.</desc>
<path fill="#F5F5F5" d="M5 0h248v4H5zM5 4h249v1H5zM0 5h9v4H0zM249 5h9v4H249zM253 9h5v73H253zM0 9h5v146H0zM254 82h4v73H254zM0 155h9v4H0zM249 155h9v5H249zM0 159h10v1H0zM5 160h248v1H5zM0 160h3v2H0zM4 161h249v1H4zM0 162h253v3H0z"/>
<path fill="#121212" d="M0 0h4v3H0zM254 0h4v4H254zM0 3h5v1H0zM10 5h239v4H10zM9 9h240v1H9zM5 10h248v5H5zM5 15h14v4H5zM52 15h13v5H52zM98 15h15v5H98zM145 15h15v5H145zM192 15h15v5H192zM239 15h14v5H239zM5 19h13v1H5zM56 20h5v10H56zM197 20h5v10H197zM28 30h33v10H28zM122 30h14v10H122zM169 30h33v10H169zM216 30h14v10H216zM52 40h9v5H52zM5 20h9v30H5zM150 20h5v30H150zM244 20h9v30H244zM183 40h19v15H183zM5 50h14v5H5zM145 50h10v5H145zM239 50h14v5H239zM216 55h4v5H216zM75 15h14v50H75zM5 55h37v10H5zM169 55h33v10H169zM216 60h9v5H216zM103 20h5v55H103zM56 45h5v30H56zM122 55h33v20H122zM244 55h9v20H244zM5 65h9v10H5zM197 65h5v10H197zM216 65h14v15H216zM5 75h14v5H5zM52 75h13v5H52zM98 75h15v5H98zM122 75h38v5H122zM192 75h15v5H192zM239 75h14v5H239zM5 80h248v5H5zM28 85h14v5H28zM56 85h9v5H56zM98 85h15v5H98zM122 85h14v5H122zM145 85h15v5H145zM192 85h15v5H192zM239 85h14v5H239zM33 90h5v5H33zM127 90h9v5H127zM131 95h5v4H131zM132 99h4v1H132zM197 90h5v15H197zM169 100h14v5H169zM75 100h14v10H75zM169 105h33v5H169zM28 110h5v5H28zM38 110h4v5H38zM122 110h5v5H122zM192 110h10v5H192zM122 115h9v5H122zM169 110h5v15H169zM216 100h14v35H216zM169 125h14v10H169zM5 85h9v60H5zM56 90h5v55H56zM103 90h5v55H103zM150 90h5v55H150zM244 90h9v55H244zM197 115h5v30H197zM28 115h14v35H28zM122 120h14v30H122zM75 125h14v25H75zM5 145h14v5H5zM52 145h13v5H52zM98 145h15v5H98zM145 145h15v5H145zM192 145h15v5H192zM239 145h14v5H239zM5 150h248v5H5zM10 155h239v4H10zM10 159h238v1H10zM3 160h2v1H3zM254 160h4v5H254z"/>
<path fill="#F4840F" d="M4 0h1v3H4zM253 0h1v4H253zM0 4h5v1H0zM254 4h4v1H254zM9 5h1v4H9zM5 9h4v1H5zM249 9h4v1H249zM19 15h33v4H19zM65 15h10v5H65zM89 15h9v5H89zM113 15h32v5H113zM160 15h32v5H160zM207 15h32v5H207zM18 19h34v1H18zM14 20h42v10H14zM108 20h42v10H108zM155 20h42v10H155zM202 20h42v10H202zM14 30h14v10H14zM108 30h14v10H108zM136 30h14v10H136zM155 30h14v10H155zM202 30h14v10H202zM230 30h14v10H230zM14 40h38v5H14zM108 40h42v10H108zM202 40h42v10H202zM14 45h42v5H14zM155 40h28v15H155zM19 50h37v5H19zM108 50h37v5H108zM202 50h37v5H202zM220 55h24v5H220zM61 20h14v45H61zM89 20h14v45H89zM42 55h14v10H42zM155 55h14v10H155zM225 60h19v5H225zM108 55h14v20H108zM202 55h14v20H202zM14 65h42v10H14zM61 65h42v10H61zM155 65h42v10H155zM230 65h14v10H230zM19 75h33v5H19zM65 75h33v5H65zM113 75h9v5H113zM160 75h32v5H160zM207 75h9v5H207zM230 75h9v5H230z"/>
<path fill="#E1303A" d="M14 85h14v5H14zM42 85h14v5H42zM65 85h33v5H65zM113 85h9v5H113zM136 85h9v5H136zM160 85h32v5H160zM207 85h32v5H207zM14 90h19v5H14zM38 90h18v5H38zM108 90h19v5H108zM108 95h23v4H108zM61 90h42v10H61zM136 90h14v10H136zM155 90h42v10H155zM202 90h42v10H202zM108 99h24v1H108zM183 100h14v5H183zM14 95h42v15H14zM61 100h14v10H61zM89 100h14v10H89zM108 100h42v10H108zM33 110h5v5H33zM127 110h23v5H127zM174 110h18v5H174zM131 115h19v5H131zM61 110h42v15H61zM174 115h23v10H174zM155 100h14v35H155zM202 100h14v35H202zM230 100h14v35H230zM183 125h14v10H183zM14 110h14v35H14zM42 110h14v35H42zM108 110h14v35H108zM136 120h14v25H136zM61 125h14v20H61zM89 125h14v20H89zM155 135h42v10H155zM202 135h42v10H202zM19 145h9v5H19zM42 145h10v5H42zM65 145h10v5H65zM89 145h9v5H89zM113 145h9v5H113zM136 145h9v5H136zM160 145h32v5H160zM207 145h32v5H207zM253 82h1v73H253zM9 155h1v4H9zM248 159h1v1H248zM3 161h1v1H3zM253 160h1v5H253z"/>
</svg>
