<svg xmlns="http://www.w3.org/2000/svg" viewBox="0 0 252 162" role="img" aria-labelledby="title desc" shape-rendering="crispEdges">
  <title id="title">Super Mango</title>
  <desc id="desc">Pixel-art Super Mango logo with orange SUPER lettering and coral-red MANGO lettering.</desc>
  <rect x="0" y="0" width="2" height="3" fill="#121212"/>
  <rect x="2" y="0" width="2" height="3" fill="#E1303A"/>
  <rect x="4" y="0" width="248" height="5" fill="#F5F5F5"/>
  <rect x="0" y="3" width="3" height="1" fill="#121212"/>
  <rect x="3" y="3" width="1" height="1" fill="#E1303A"/>
  <rect x="0" y="4" width="4" height="1" fill="#E1303A"/>
  <rect x="0" y="5" width="9" height="4" fill="#F5F5F5"/>
  <rect x="9" y="5" width="239" height="5" fill="#121212"/>
  <rect x="248" y="5" width="4" height="5" fill="#F5F5F5"/>
  <rect x="0" y="9" width="8" height="1" fill="#F5F5F5"/>
  <rect x="8" y="9" width="1" height="1" fill="#E1303A"/>
  <rect x="0" y="10" width="4" height="145" fill="#F5F5F5"/>
  <rect x="4" y="10" width="248" height="5" fill="#121212"/>
  <rect x="4" y="15" width="14" height="5" fill="#121212"/>
  <rect x="18" y="15" width="32" height="1" fill="#F4840F"/>
  <rect x="50" y="15" width="1" height="1" fill="#E1303A"/>
  <rect x="51" y="15" width="14" height="1" fill="#121212"/>
  <rect x="65" y="15" width="9" height="5" fill="#F4840F"/>
  <rect x="74" y="15" width="14" height="35" fill="#121212"/>
  <rect x="88" y="15" width="9" height="5" fill="#F4840F"/>
  <rect x="97" y="15" width="1" height="5" fill="#E1303A"/>
  <rect x="98" y="15" width="14" height="5" fill="#121212"/>
  <rect x="112" y="15" width="32" height="5" fill="#F4840F"/>
  <rect x="144" y="15" width="15" height="5" fill="#121212"/>
  <rect x="159" y="15" width="32" height="5" fill="#F4840F"/>
  <rect x="191" y="15" width="15" height="5" fill="#121212"/>
  <rect x="206" y="15" width="32" height="5" fill="#F4840F"/>
  <rect x="238" y="15" width="14" height="5" fill="#121212"/>
  <rect x="18" y="16" width="33" height="4" fill="#F4840F"/>
  <rect x="51" y="16" width="13" height="4" fill="#121212"/>
  <rect x="64" y="16" width="1" height="4" fill="#E1303A"/>
  <rect x="4" y="20" width="9" height="30" fill="#121212"/>
  <rect x="13" y="20" width="1" height="30" fill="#E1303A"/>
  <rect x="14" y="20" width="41" height="10" fill="#F4840F"/>
  <rect x="55" y="20" width="5" height="1" fill="#121212"/>
  <rect x="60" y="20" width="14" height="45" fill="#F4840F"/>
  <rect x="88" y="20" width="14" height="30" fill="#F4840F"/>
  <rect x="102" y="20" width="5" height="55" fill="#121212"/>
  <rect x="107" y="20" width="42" height="10" fill="#F4840F"/>
  <rect x="149" y="20" width="5" height="30" fill="#121212"/>
  <rect x="154" y="20" width="42" height="10" fill="#F4840F"/>
  <rect x="196" y="20" width="5" height="10" fill="#121212"/>
  <rect x="201" y="20" width="42" height="10" fill="#F4840F"/>
  <rect x="243" y="20" width="9" height="30" fill="#121212"/>
  <rect x="55" y="21" width="1" height="8" fill="#E1303A"/>
  <rect x="56" y="21" width="4" height="8" fill="#121212"/>
  <rect x="55" y="29" width="5" height="1" fill="#121212"/>
  <rect x="14" y="30" width="13" height="10" fill="#F4840F"/>
  <rect x="27" y="30" width="33" height="10" fill="#121212"/>
  <rect x="107" y="30" width="14" height="10" fill="#F4840F"/>
  <rect x="121" y="30" width="14" height="10" fill="#121212"/>
  <rect x="135" y="30" width="14" height="10" fill="#F4840F"/>
  <rect x="154" y="30" width="14" height="10" fill="#F4840F"/>
  <rect x="168" y="30" width="33" height="10" fill="#121212"/>
  <rect x="201" y="30" width="14" height="10" fill="#F4840F"/>
  <rect x="215" y="30" width="14" height="10" fill="#121212"/>
  <rect x="229" y="30" width="14" height="10" fill="#F4840F"/>
  <rect x="14" y="40" width="37" height="5" fill="#F4840F"/>
  <rect x="51" y="40" width="9" height="5" fill="#121212"/>
  <rect x="107" y="40" width="42" height="10" fill="#F4840F"/>
  <rect x="154" y="40" width="28" height="15" fill="#F4840F"/>
  <rect x="182" y="40" width="19" height="15" fill="#121212"/>
  <rect x="201" y="40" width="42" height="10" fill="#F4840F"/>
  <rect x="14" y="45" width="41" height="5" fill="#F4840F"/>
  <rect x="55" y="45" width="5" height="1" fill="#121212"/>
  <rect x="55" y="46" width="1" height="28" fill="#E1303A"/>
  <rect x="56" y="46" width="4" height="28" fill="#121212"/>
  <rect x="4" y="50" width="14" height="5" fill="#121212"/>
  <rect x="18" y="50" width="37" height="5" fill="#F4840F"/>
  <rect x="74" y="50" width="15" height="14" fill="#121212"/>
  <rect x="89" y="50" width="13" height="15" fill="#F4840F"/>
  <rect x="107" y="50" width="37" height="5" fill="#F4840F"/>
  <rect x="144" y="50" width="10" height="5" fill="#121212"/>
  <rect x="201" y="50" width="37" height="5" fill="#F4840F"/>
  <rect x="238" y="50" width="14" height="5" fill="#121212"/>
  <rect x="4" y="55" width="37" height="10" fill="#121212"/>
  <rect x="41" y="55" width="14" height="10" fill="#F4840F"/>
  <rect x="107" y="55" width="14" height="20" fill="#F4840F"/>
  <rect x="121" y="55" width="33" height="20" fill="#121212"/>
  <rect x="154" y="55" width="14" height="10" fill="#F4840F"/>
  <rect x="168" y="55" width="33" height="10" fill="#121212"/>
  <rect x="201" y="55" width="14" height="20" fill="#F4840F"/>
  <rect x="215" y="55" width="5" height="5" fill="#121212"/>
  <rect x="220" y="55" width="23" height="5" fill="#F4840F"/>
  <rect x="243" y="55" width="9" height="20" fill="#121212"/>
  <rect x="215" y="60" width="9" height="5" fill="#121212"/>
  <rect x="224" y="60" width="19" height="5" fill="#F4840F"/>
  <rect x="74" y="64" width="14" height="1" fill="#121212"/>
  <rect x="88" y="64" width="1" height="1" fill="#E1303A"/>
  <rect x="4" y="65" width="9" height="10" fill="#121212"/>
  <rect x="13" y="65" width="1" height="10" fill="#E1303A"/>
  <rect x="14" y="65" width="41" height="10" fill="#F4840F"/>
  <rect x="60" y="65" width="42" height="10" fill="#F4840F"/>
  <rect x="154" y="65" width="42" height="10" fill="#F4840F"/>
  <rect x="196" y="65" width="5" height="10" fill="#121212"/>
  <rect x="215" y="65" width="14" height="15" fill="#121212"/>
  <rect x="229" y="65" width="14" height="10" fill="#F4840F"/>
  <rect x="55" y="74" width="5" height="1" fill="#121212"/>
  <rect x="4" y="75" width="14" height="5" fill="#121212"/>
  <rect x="18" y="75" width="33" height="5" fill="#F4840F"/>
  <rect x="51" y="75" width="14" height="5" fill="#121212"/>
  <rect x="65" y="75" width="32" height="5" fill="#F4840F"/>
  <rect x="97" y="75" width="1" height="5" fill="#E1303A"/>
  <rect x="98" y="75" width="14" height="5" fill="#121212"/>
  <rect x="112" y="75" width="9" height="5" fill="#F4840F"/>
  <rect x="121" y="75" width="38" height="5" fill="#121212"/>
  <rect x="159" y="75" width="32" height="5" fill="#F4840F"/>
  <rect x="191" y="75" width="15" height="5" fill="#121212"/>
  <rect x="206" y="75" width="9" height="5" fill="#F4840F"/>
  <rect x="229" y="75" width="9" height="5" fill="#F4840F"/>
  <rect x="238" y="75" width="14" height="5" fill="#121212"/>
  <rect x="4" y="80" width="248" height="5" fill="#121212"/>
  <rect x="4" y="85" width="9" height="60" fill="#121212"/>
  <rect x="13" y="85" width="14" height="5" fill="#E1303A"/>
  <rect x="27" y="85" width="14" height="5" fill="#121212"/>
  <rect x="41" y="85" width="14" height="5" fill="#E1303A"/>
  <rect x="55" y="85" width="10" height="5" fill="#121212"/>
  <rect x="65" y="85" width="33" height="5" fill="#E1303A"/>
  <rect x="98" y="85" width="14" height="5" fill="#121212"/>
  <rect x="112" y="85" width="9" height="5" fill="#E1303A"/>
  <rect x="121" y="85" width="14" height="5" fill="#121212"/>
  <rect x="135" y="85" width="9" height="5" fill="#E1303A"/>
  <rect x="144" y="85" width="15" height="5" fill="#121212"/>
  <rect x="159" y="85" width="32" height="5" fill="#E1303A"/>
  <rect x="191" y="85" width="15" height="5" fill="#121212"/>
  <rect x="206" y="85" width="32" height="5" fill="#E1303A"/>
  <rect x="238" y="85" width="14" height="5" fill="#121212"/>
  <rect x="13" y="90" width="19" height="5" fill="#E1303A"/>
  <rect x="32" y="90" width="5" height="5" fill="#121212"/>
  <rect x="37" y="90" width="18" height="5" fill="#E1303A"/>
  <rect x="55" y="90" width="5" height="55" fill="#121212"/>
  <rect x="60" y="90" width="42" height="10" fill="#E1303A"/>
  <rect x="102" y="90" width="5" height="55" fill="#121212"/>
  <rect x="107" y="90" width="19" height="5" fill="#E1303A"/>
  <rect x="126" y="90" width="9" height="5" fill="#121212"/>
  <rect x="135" y="90" width="14" height="10" fill="#E1303A"/>
  <rect x="149" y="90" width="5" height="55" fill="#121212"/>
  <rect x="154" y="90" width="42" height="10" fill="#E1303A"/>
  <rect x="196" y="90" width="5" height="15" fill="#121212"/>
  <rect x="201" y="90" width="42" height="10" fill="#E1303A"/>
  <rect x="243" y="90" width="9" height="55" fill="#121212"/>
  <rect x="13" y="95" width="42" height="15" fill="#E1303A"/>
  <rect x="107" y="95" width="24" height="5" fill="#E1303A"/>
  <rect x="131" y="95" width="4" height="5" fill="#121212"/>
  <rect x="60" y="100" width="14" height="10" fill="#E1303A"/>
  <rect x="74" y="100" width="15" height="10" fill="#121212"/>
  <rect x="89" y="100" width="13" height="10" fill="#E1303A"/>
  <rect x="107" y="100" width="42" height="10" fill="#E1303A"/>
  <rect x="154" y="100" width="14" height="35" fill="#E1303A"/>
  <rect x="168" y="100" width="14" height="5" fill="#121212"/>
  <rect x="182" y="100" width="14" height="5" fill="#E1303A"/>
  <rect x="201" y="100" width="14" height="35" fill="#E1303A"/>
  <rect x="215" y="100" width="14" height="35" fill="#121212"/>
  <rect x="229" y="100" width="14" height="35" fill="#E1303A"/>
  <rect x="168" y="105" width="33" height="5" fill="#121212"/>
  <rect x="13" y="110" width="14" height="35" fill="#E1303A"/>
  <rect x="27" y="110" width="5" height="5" fill="#121212"/>
  <rect x="32" y="110" width="5" height="5" fill="#E1303A"/>
  <rect x="37" y="110" width="4" height="5" fill="#121212"/>
  <rect x="41" y="110" width="14" height="35" fill="#E1303A"/>
  <rect x="60" y="110" width="42" height="15" fill="#E1303A"/>
  <rect x="107" y="110" width="14" height="35" fill="#E1303A"/>
  <rect x="121" y="110" width="5" height="5" fill="#121212"/>
  <rect x="126" y="110" width="23" height="5" fill="#E1303A"/>
  <rect x="168" y="110" width="5" height="15" fill="#121212"/>
  <rect x="173" y="110" width="18" height="5" fill="#E1303A"/>
  <rect x="191" y="110" width="10" height="5" fill="#121212"/>
  <rect x="27" y="115" width="14" height="35" fill="#121212"/>
  <rect x="121" y="115" width="10" height="5" fill="#121212"/>
  <rect x="131" y="115" width="18" height="5" fill="#E1303A"/>
  <rect x="173" y="115" width="23" height="10" fill="#E1303A"/>
  <rect x="196" y="115" width="5" height="30" fill="#121212"/>
  <rect x="121" y="120" width="14" height="30" fill="#121212"/>
  <rect x="135" y="120" width="14" height="25" fill="#E1303A"/>
  <rect x="60" y="125" width="14" height="20" fill="#E1303A"/>
  <rect x="74" y="125" width="15" height="25" fill="#121212"/>
  <rect x="89" y="125" width="13" height="20" fill="#E1303A"/>
  <rect x="168" y="125" width="14" height="10" fill="#121212"/>
  <rect x="182" y="125" width="14" height="10" fill="#E1303A"/>
  <rect x="154" y="135" width="42" height="10" fill="#E1303A"/>
  <rect x="201" y="135" width="42" height="10" fill="#E1303A"/>
  <rect x="4" y="145" width="14" height="5" fill="#121212"/>
  <rect x="18" y="145" width="9" height="5" fill="#E1303A"/>
  <rect x="41" y="145" width="10" height="5" fill="#E1303A"/>
  <rect x="51" y="145" width="14" height="5" fill="#121212"/>
  <rect x="65" y="145" width="9" height="5" fill="#E1303A"/>
  <rect x="89" y="145" width="9" height="5" fill="#E1303A"/>
  <rect x="98" y="145" width="14" height="5" fill="#121212"/>
  <rect x="112" y="145" width="9" height="5" fill="#E1303A"/>
  <rect x="135" y="145" width="9" height="5" fill="#E1303A"/>
  <rect x="144" y="145" width="15" height="5" fill="#121212"/>
  <rect x="159" y="145" width="32" height="5" fill="#E1303A"/>
  <rect x="191" y="145" width="15" height="5" fill="#121212"/>
  <rect x="206" y="145" width="32" height="5" fill="#E1303A"/>
  <rect x="238" y="145" width="14" height="5" fill="#121212"/>
  <rect x="4" y="150" width="248" height="5" fill="#121212"/>
  <rect x="0" y="155" width="9" height="5" fill="#F5F5F5"/>
  <rect x="9" y="155" width="239" height="5" fill="#121212"/>
  <rect x="248" y="155" width="4" height="5" fill="#F5F5F5"/>
  <rect x="0" y="160" width="2" height="2" fill="#F5F5F5"/>
  <rect x="2" y="160" width="2" height="2" fill="#121212"/>
  <rect x="4" y="160" width="248" height="2" fill="#F5F5F5"/>
</svg>
